<svg width="50" height="50" viewBox="0 0 50 50" fill="none" xmlns="http://www.w3.org/2000/svg">
<path d="M22.824 16.0472C23.4023 15.454 23.3903 14.5043 22.7972 13.926C22.204 13.3477 21.2543 13.3597 20.676 13.9529L10.926 23.9528C10.358 24.5354 10.358 25.4646 10.926 26.0471L20.676 36.0471C21.2543 36.6403 22.204 36.6523 22.7971 36.074C23.3903 35.4957 23.4023 34.546 22.824 33.9528L15.5575 26.5L38 26.5C38.8284 26.5 39.5 25.8284 39.5 25C39.5 24.1716 38.8284 23.5 38 23.5L15.5575 23.5L22.824 16.0472Z" fill="#4410A5"/>
<path fill-rule="evenodd" clip-rule="evenodd" d="M0 25C0 11.1929 11.1929 0 25 0C38.8071 2.83618e-06 50 11.1929 50 25C50 38.8071 38.8071 50 25 50C11.1929 50 -2.83618e-06 38.8071 0 25ZM0.999998 25C1 11.7452 11.7452 1 25 1C38.2548 1 49 11.7452 49 25C49 38.2548 38.2548 49 25 49C11.7452 49 0.999997 38.2548 0.999998 25Z" fill="#4410A5"/>
</svg>
