<svg width="55" height="55" viewBox="0 0 55 55" fill="none" xmlns="http://www.w3.org/2000/svg">
<path d="M0.150391 18.0065C0.150391 11.4801 5.49617 6.18945 12.0905 6.18945H42.7937C49.3881 6.18945 54.7338 11.4801 54.7338 18.0065V42.766C54.7338 49.2924 49.3881 54.583 42.7937 54.583H12.0905C5.49617 54.583 0.150391 49.2924 0.150391 42.766V18.0065Z" fill="#8F8F8F"/>
<path d="M13.2285 3.93858C13.2285 2.38468 14.5013 1.125 16.0714 1.125C17.6415 1.125 18.9143 2.38468 18.9143 3.93858V9.56574C18.9143 11.1196 17.6415 12.3793 16.0714 12.3793C14.5013 12.3793 13.2285 11.1196 13.2285 9.56574V3.93858Z" fill="#8F8F8F"/>
<path fill-rule="evenodd" clip-rule="evenodd" d="M20.0519 3.93901V9.56617C20.0519 11.7416 18.27 13.5052 16.0718 13.5052C13.8737 13.5052 12.0918 11.7416 12.0918 9.56617V3.93901C12.0918 1.76356 13.8737 0 16.0718 0C18.27 0 20.0519 1.76356 20.0519 3.93901ZM16.0718 1.12543C14.5018 1.12543 13.229 2.38511 13.229 3.93901V9.56617C13.229 11.1201 14.5018 12.3797 16.0718 12.3797C17.6419 12.3797 18.9147 11.1201 18.9147 9.56617V3.93901C18.9147 2.38511 17.6419 1.12543 16.0718 1.12543Z" fill="white"/>
<path d="M35.9727 3.93858C35.9727 2.38468 37.2455 1.125 38.8155 1.125C40.3856 1.125 41.6584 2.38468 41.6584 3.93858V9.56574C41.6584 11.1196 40.3856 12.3793 38.8155 12.3793C37.2455 12.3793 35.9727 11.1196 35.9727 9.56574V3.93858Z" fill="#8F8F8F"/>
<path fill-rule="evenodd" clip-rule="evenodd" d="M42.7921 3.93901V9.56617C42.7921 11.7416 41.0102 13.5052 38.8121 13.5052C36.614 13.5052 34.832 11.7416 34.832 9.56617V3.93901C34.832 1.76356 36.614 0 38.8121 0C41.0102 0 42.7921 1.76356 42.7921 3.93901ZM38.8121 1.12543C37.242 1.12543 35.9692 2.38511 35.9692 3.93901V9.56617C35.9692 11.1201 37.242 12.3797 38.8121 12.3797C40.3822 12.3797 41.655 11.1201 41.655 9.56617V3.93901C41.655 2.38511 40.3822 1.12543 38.8121 1.12543Z" fill="white"/>
<path d="M0.150391 19.1621H54.7338V21.413H0.150391V19.1621Z" fill="white"/>
<path d="M13.2268 30.3878C13.2268 31.9417 11.954 33.2014 10.3839 33.2014C8.81382 33.2014 7.54102 31.9417 7.54102 30.3878C7.54102 28.8339 8.81382 27.5742 10.3839 27.5742C11.954 27.5742 13.2268 28.8339 13.2268 30.3878Z" fill="white"/>
<path d="M24.5979 30.3878C24.5979 31.9417 23.3251 33.2014 21.755 33.2014C20.1849 33.2014 18.9121 31.9417 18.9121 30.3878C18.9121 28.8339 20.1849 27.5742 21.755 27.5742C23.3251 27.5742 24.5979 28.8339 24.5979 30.3878Z" fill="white"/>
<path d="M35.9709 30.3878C35.9709 31.9417 34.6981 33.2014 33.128 33.2014C31.558 33.2014 30.2852 31.9417 30.2852 30.3878C30.2852 28.8339 31.558 27.5742 33.128 27.5742C34.6981 27.5742 35.9709 28.8339 35.9709 30.3878Z" fill="white"/>
<path d="M47.344 30.3878C47.344 31.9417 46.0712 33.2014 44.5011 33.2014C42.931 33.2014 41.6582 31.9417 41.6582 30.3878C41.6582 28.8339 42.931 27.5742 44.5011 27.5742C46.0712 27.5742 47.344 28.8339 47.344 30.3878Z" fill="white"/>
<path d="M47.5764 41.7179C47.5764 43.2718 46.3036 44.5315 44.7335 44.5315C43.1634 44.5315 41.8906 43.2718 41.8906 41.7179C41.8906 40.164 43.1634 38.9043 44.7335 38.9043C46.3036 38.9043 47.5764 40.164 47.5764 41.7179Z" fill="white"/>
<path d="M36.2073 41.7179C36.2073 43.2718 34.9345 44.5315 33.3644 44.5315C31.7943 44.5315 30.5215 43.2718 30.5215 41.7179C30.5215 40.164 31.7943 38.9043 33.3644 38.9043C34.9345 38.9043 36.2073 40.164 36.2073 41.7179Z" fill="white"/>
<path d="M24.8362 41.7179C24.8362 43.2718 23.5634 44.5315 21.9933 44.5315C20.4232 44.5315 19.1504 43.2718 19.1504 41.7179C19.1504 40.164 20.4232 38.9043 21.9933 38.9043C23.5634 38.9043 24.8362 40.164 24.8362 41.7179Z" fill="white"/>
<path d="M13.4631 41.7179C13.4631 43.2718 12.1903 44.5315 10.6202 44.5315C9.05015 44.5315 7.77734 43.2718 7.77734 41.7179C7.77734 40.164 9.05015 38.9043 10.6202 38.9043C12.1903 38.9043 13.4631 40.164 13.4631 41.7179Z" fill="white"/>
</svg>
