<svg width="48" height="48" viewBox="0 0 48 48" fill="none" xmlns="http://www.w3.org/2000/svg">
<rect width="48" height="48" rx="8" fill="#F98B91"/>
<path fill-rule="evenodd" clip-rule="evenodd" d="M32.4775 35.1444C33.3453 36.0122 34.7524 36.0122 35.6202 35.1444C36.488 34.2766 36.488 32.8695 35.6202 32.0017L27.0562 23.4377L35.1446 15.3493C36.0125 14.4814 36.0125 13.0744 35.1446 12.2066C34.2768 11.3387 32.8698 11.3387 32.0019 12.2066L23.9135 20.295L15.8248 12.2063C14.957 11.3385 13.5499 11.3385 12.6821 12.2063C11.8143 13.0741 11.8143 14.4812 12.6821 15.349L20.7708 23.4377L12.2065 32.002C11.3387 32.8698 11.3387 34.2768 12.2065 35.1447C13.0744 36.0125 14.4814 36.0125 15.3492 35.1447L23.9135 26.5804L32.4775 35.1444Z" fill="#FFFDF8"/>
</svg>
