<?xml version="1.0" encoding="utf-8"?>
<!-- Generator: Adobe Illustrator 27.5.0, SVG Export Plug-In . SVG Version: 6.00 Build 0)  -->
<svg version="1.1" id="Layer_1" xmlns="http://www.w3.org/2000/svg" xmlns:xlink="http://www.w3.org/1999/xlink" x="0px" y="0px"
	 viewBox="0 0 48 48" style="enable-background:new 0 0 48 48;" xml:space="preserve">
<style type="text/css">
	.st0{fill:#F98B91;}
	.st1{fill-rule:evenodd;clip-rule:evenodd;fill:#FFFFFF;}
</style>
<path class="st0" d="M8,0h32c4.4,0,8,3.6,8,8v32c0,4.4-3.6,8-8,8H8c-4.4,0-8-3.6-8-8V8C0,3.6,3.6,0,8,0z"/>
<path class="st1" d="M32.5,35.1c0.9,0.9,2.3,0.9,3.1,0c0.9-0.9,0.9-2.3,0-3.1l-8.6-8.6l8.1-8.1c0.9-0.9,0.9-2.3,0-3.1
	c-0.9-0.9-2.3-0.9-3.1,0l-8.1,8.1l-8.1-8.1c-0.9-0.9-2.3-0.9-3.1,0c-0.9,0.9-0.9,2.3,0,3.1l8.1,8.1L12.2,32c-0.9,0.9-0.9,2.3,0,3.1
	c0.9,0.9,2.3,0.9,3.1,0l8.6-8.6L32.5,35.1z"/>
</svg>
