<svg width="26" height="23" viewBox="0 0 26 23" fill="none" xmlns="http://www.w3.org/2000/svg">
<path d="M16.6 18.008H25M9.4 4.88305H1M1 18.008H3.4M25 4.88305H22.6M10 14.125C11.9883 14.125 13.6 15.8878 13.6 18.0625C13.6 20.2371 11.9883 22 10 22C8.01178 22 6.4 20.2371 6.4 18.0625C6.4 15.8878 8.01178 14.125 10 14.125ZM16 1C14.0117 1 12.4 2.76287 12.4 4.93749C12.4 7.11211 14.0117 8.87499 16 8.87499C17.9883 8.87499 19.6 7.11211 19.6 4.93749C19.6 2.76287 17.9883 1 16 1Z" stroke="#5E31B1" stroke-width="1.5" stroke-linecap="round"/>
</svg>
