<svg width="86" height="55" viewBox="0 0 86 55" fill="none" xmlns="http://www.w3.org/2000/svg">
<path d="M39.6359 23.3166C41.1854 25.052 43.5307 25.3501 45.24 23.7922L50.1016 19.3611C51.34 18.2323 52.7897 18.3069 53.6429 19.3561C54.1548 20.023 53.8617 22.117 53.6203 23.3957L50.2724 42.5795C49.998 44.3098 51.0907 46.0119 52.8032 46.2873C54.5156 46.5627 56.1191 45.3541 56.3935 43.6238L59.7143 28.568C59.8206 28.2089 60.1954 28.1296 60.167 28.68L60.0402 48.3943C59.9506 50.1341 61.2419 51.5804 62.9639 51.669C64.686 51.7576 66.1189 50.4516 66.2084 48.7118L67.4151 28.8658C67.4293 28.5906 67.6141 28.6001 67.6 28.8753L69.596 44.4906C69.7789 46.2444 71.3424 47.5174 73.0787 47.3308C74.8149 47.1442 75.9941 45.4604 75.8112 43.7066L74.3015 25.4653C74.3202 25.1016 74.4174 24.9193 74.5785 25.3908L77.6893 35.4557C78.1492 37.135 79.9117 38.1423 81.5746 37.676C83.2374 37.2097 84.1435 35.3345 83.6837 33.6551L78.3499 12.004C78.3545 11.9156 78.2766 11.7243 78.2811 11.6358C76.7588 5.95959 71.8001 1.66365 65.7388 1.35171C61.8472 1.15143 57.6998 2.31776 54.4933 4.53777C51.0428 6.38057 39.7525 17.4487 39.7525 17.4487C37.946 19.0016 38.0864 21.5811 39.6359 23.3166Z" fill="#4410A5"/>
<path d="M46.6427 29.4424C45.0078 27.7689 42.6527 27.5896 41.0276 29.2531L36.4051 33.9846C35.2275 35.1898 33.7775 35.1898 32.8725 34.1738C32.3275 33.5264 32.5124 31.3947 32.6876 30.0898L35.0426 10.5266C35.2275 8.76348 34.05 7.1 32.3275 6.91074C30.605 6.72148 29.0674 8.02637 28.8825 9.78945L26.3426 25.1791C26.255 25.5477 25.8852 25.6473 25.8852 25.0895L24.9996 5.15762C24.9996 3.39453 23.6372 2 21.9147 2C20.1922 2 18.8298 3.39453 18.8298 5.15762L18.6449 25.2787C18.6449 25.5576 18.46 25.5576 18.46 25.2787L15.667 9.6002C15.3945 7.83711 13.7693 6.63184 12.0468 6.91074C10.3243 7.18965 9.23439 8.95273 9.50687 10.7158L11.9495 29.0738C11.9495 29.4424 11.8619 29.6316 11.677 29.1635L8.05686 19.1527C7.51189 17.4793 5.70181 16.5529 4.0669 17.1107C2.43199 17.6686 1.62427 19.6109 2.16924 21.2844L8.60183 42.8896C8.60183 42.9793 8.68942 43.1686 8.68942 43.2582C10.4995 48.916 15.667 53 21.7298 53C25.6224 53 29.7 51.6055 32.7849 49.1949C36.1326 47.1529 46.8276 35.3791 46.8276 35.3791C48.5501 33.7156 48.2776 31.1158 46.6427 29.4424Z" stroke="black" stroke-width="4"/>
</svg>
