<svg width="56" height="43" viewBox="0 0 56 43" fill="none" xmlns="http://www.w3.org/2000/svg">
<path d="M42.5509 0C40.3927 0.0335703 38.2815 0.636052 36.4306 1.7466C34.5797 2.85715 33.0546 4.43645 32.0093 6.325C30.964 4.43645 29.4389 2.85715 27.588 1.7466C25.7371 0.636052 23.6259 0.0335703 21.4676 0C18.0271 0.149482 14.7855 1.65457 12.4512 4.18645C10.1168 6.71832 8.87942 10.0712 9.00928 13.5125C9.00928 26.4979 30.0083 41.4958 30.9014 42.1322L32.0093 42.9161L33.1171 42.1322C34.0103 41.4997 55.0093 26.4979 55.0093 13.5125C55.1391 10.0712 53.9017 6.71832 51.5674 4.18645C49.233 1.65457 45.9915 0.149482 42.5509 0Z" fill="#F2AD00"/>
<path d="M21.2594 7.29351L23.0093 10.4551L24.7591 7.29351C25.634 5.71287 26.9104 4.39107 28.4596 3.46159C29.9919 2.5422 31.7373 2.03885 33.5232 2.00084C36.4138 2.14194 39.1342 3.41329 41.097 5.54214C43.0731 7.68549 44.1206 10.5238 44.0107 13.4371L44.0093 13.4748V13.5125C44.0093 16.2409 42.8955 19.2433 41.0079 22.3303C39.1331 25.3963 36.5924 28.3875 33.972 31.0525C28.8847 36.2264 23.6817 39.9866 23.0094 40.4658C22.316 39.9698 17.1236 36.2141 12.0465 31.051C9.42607 28.3862 6.88536 25.3954 5.01058 22.3296C3.12305 19.2431 2.00928 16.2408 2.00928 13.5125V13.4748L2.00786 13.4371C1.89793 10.5238 2.94546 7.68549 4.9216 5.54214C6.88437 3.41329 9.60475 2.14194 12.4953 2.00084C14.2812 2.03885 16.0267 2.5422 17.559 3.46159C19.1081 4.39107 20.3846 5.71287 21.2594 7.29351Z" stroke="black" stroke-width="4"/>
</svg>
