<svg width="85" height="85" viewBox="0 0 85 85" fill="none" xmlns="http://www.w3.org/2000/svg">
<g clip-path="url(#clip0_1052_13034)">
<path d="M71.4985 0H13.5015C6.04484 0 0 6.04484 0 13.5015V71.4985C0 78.9552 6.04484 85 13.5015 85H71.4985C78.9552 85 85 78.9552 85 71.4985V13.5015C85 6.04484 78.9552 0 71.4985 0Z" fill="url(#paint0_linear_1052_13034)"/>
<path d="M23.1802 19.7017C25.2872 19.7017 26.9952 17.9937 26.9952 15.8868C26.9952 13.7798 25.2872 12.0718 23.1802 12.0718C21.0733 12.0718 19.3652 13.7798 19.3652 15.8868C19.3652 17.9937 21.0733 19.7017 23.1802 19.7017Z" fill="white"/>
<path d="M61.7662 19.7017C63.8731 19.7017 65.5811 17.9937 65.5811 15.8868C65.5811 13.7798 63.8731 12.0718 61.7662 12.0718C59.6592 12.0718 57.9512 13.7798 57.9512 15.8868C57.9512 17.9937 59.6592 19.7017 61.7662 19.7017Z" fill="white"/>
<path d="M27.0026 23.1807H19.2656V69.5415H27.0026V23.1807Z" fill="white"/>
<path d="M65.5807 23.1807H57.8438V69.4345H65.5807V23.1807Z" fill="white"/>
<path d="M34.7703 54.5186H11.5898V62.2479H34.7703V54.5186Z" fill="white"/>
<path d="M73.4093 54.5186H38.6387V62.2479H73.4093V54.5186Z" fill="white"/>
<path d="M57.8977 31.7354H57.7448C54.2662 36.4831 48.6546 39.5641 42.3243 39.5641C35.9941 39.5641 30.4512 36.5213 26.9727 31.8271V42.0488C31.3305 45.1604 36.6668 46.9953 42.4314 46.9953C48.1959 46.9953 53.5399 45.1604 57.8977 42.0488V31.743V31.7354Z" fill="white"/>
</g>
<defs>
<linearGradient id="paint0_linear_1052_13034" x1="0" y1="43" x2="85" y2="43" gradientUnits="userSpaceOnUse">
<stop stop-color="#4410A5"/>
<stop offset="1" stop-color="#A480E4"/>
</linearGradient>
<clipPath id="clip0_1052_13034">
<rect width="85" height="85" fill="white"/>
</clipPath>
</defs>
</svg>
