<svg width="45" height="57" viewBox="0 0 45 57" fill="none" xmlns="http://www.w3.org/2000/svg">
<path fill-rule="evenodd" clip-rule="evenodd" d="M22.5 0C10.0736 0 0 10.3908 0 23.2084C0 35.9257 7.18121 50.7654 18.3856 56.0721C20.9973 57.3093 24.0027 57.3093 26.6144 56.0721C37.8188 50.7654 45 35.9257 45 23.2084C45 10.3908 34.9265 0 22.5 0ZM22.5 31.35C27.1599 31.35 30.9375 27.5221 30.9375 22.8C30.9375 18.078 27.1599 14.25 22.5 14.25C17.8401 14.25 14.0625 18.078 14.0625 22.8C14.0625 27.5221 17.8401 31.35 22.5 31.35Z" fill="#8F8F8F"/>
</svg>
