<svg width="60" height="51" viewBox="0 0 60 51" fill="none" xmlns="http://www.w3.org/2000/svg">
<path d="M10.0083 0C8.52953 0 7.33075 1.19878 7.33075 2.67756V29.4531C7.33075 30.9319 8.52953 32.1307 10.0083 32.1307H49.6361C51.1149 32.1307 52.3137 30.9319 52.3137 29.4531V2.67756C52.3137 1.19878 51.1149 0 49.6361 0H10.0083Z" fill="#8F8F8F"/>
<path d="M52.5814 34.2727H7.06299L3.40973 37.4693C1.61816 39.037 0.433491 41.1836 0.0622084 43.535C-0.0871626 44.481 0.0337524 45.45 0.411023 46.3303L0.679087 46.9558C1.17209 48.1061 2.03746 49.0574 3.13618 49.6567C3.9559 50.1038 4.87471 50.3381 5.80845 50.3381H54.4654C55.4959 50.3381 56.4923 49.9695 57.2747 49.2988C57.7115 48.9244 58.0691 48.4664 58.3264 47.9518L58.6962 47.2122C58.9024 46.7999 59.0394 46.3564 59.1017 45.8996L59.1155 45.7979C59.5501 42.6109 58.3686 39.4168 55.9645 37.2799L52.5814 34.2727Z" fill="#8F8F8F"/>
<path d="M30.0901 11.7812C32.0125 11.7812 33.5709 10.2228 33.5709 8.30043C33.5709 6.37802 32.0125 4.8196 30.0901 4.8196C28.1677 4.8196 26.6093 6.37802 26.6093 8.30043C26.6093 10.2228 28.1677 11.7812 30.0901 11.7812Z" fill="white"/>
<path d="M18.0411 44.983H41.6036V43.3764H18.0411V44.983Z" fill="white"/>
</svg>
