<?xml version="1.0" encoding="utf-8"?>
<!-- Generator: Adobe Illustrator 27.5.0, SVG Export Plug-In . SVG Version: 6.00 Build 0)  -->
<svg version="1.1" id="Layer_1" xmlns="http://www.w3.org/2000/svg" xmlns:xlink="http://www.w3.org/1999/xlink" x="0px" y="0px"
	 viewBox="0 0 48 48" style="enable-background:new 0 0 48 48;" xml:space="preserve">
<style type="text/css">
	.st0{fill-rule:evenodd;clip-rule:evenodd;fill:#F2AD00;}
	.st1{fill-rule:evenodd;clip-rule:evenodd;fill:#FFFFFF;}
	.st2{fill:#F2AD00;}
</style>
<path class="st0" d="M40,0H25v7H7v19H0v14c0,4.4,3.6,8,8,8h32c4.4,0,8-3.6,8-8V8C48,3.6,44.4,0,40,0z"/>
<path class="st1" d="M23,10h4v10.5c1.2,0.7,2,2,2,3.5c0,2.2-1.8,4-4,4c-1.5,0-2.8-0.8-3.5-2H13v-4h8.5c0.4-0.6,0.9-1.1,1.5-1.5V10z"
	/>
<rect y="10" class="st2" width="4" height="5"/>
<rect y="18" class="st2" width="4" height="5"/>
<path class="st0" d="M7,0v4H4v3H0V3h0c0-0.1,0-0.2,0-0.3V2c0-1.1,0.9-2,2-2h0.5H7z"/>
<rect x="10" class="st2" width="5" height="4"/>
<rect x="18" class="st2" width="5" height="4"/>
</svg>
