<svg width="48" height="48" viewBox="0 0 48 48" fill="none" xmlns="http://www.w3.org/2000/svg">
<path fill-rule="evenodd" clip-rule="evenodd" d="M40 0H25V7L7 7V26H0V40C0 44.4183 3.58172 48 8 48H40C44.4183 48 48 44.4183 48 40V8C48 3.58172 44.4183 0 40 0Z" fill="#F2AD00"/>
<path fill-rule="evenodd" clip-rule="evenodd" d="M23 10H27V20.5351C28.1956 21.2267 29 22.5194 29 24C29 26.2091 27.2091 28 25 28C23.5194 28 22.2267 27.1956 21.5351 26H13V22H21.5351C21.8864 21.3927 22.3927 20.8864 23 20.5351V10Z" fill="#FFFDF8"/>
<rect y="10" width="4" height="5" fill="#F2AD00"/>
<rect y="18" width="4" height="5" fill="#F2AD00"/>
<path fill-rule="evenodd" clip-rule="evenodd" d="M7 0V4L4 4V7H0V3H0.0173833C0.00592283 2.91323 0 2.8246 0 2.73444V2C0 0.89543 0.895431 0 2 0H2.50677H7Z" fill="#F2AD00"/>
<rect x="10" width="5" height="4" fill="#F2AD00"/>
<rect x="18" width="5" height="4" fill="#F2AD00"/>
</svg>
