<svg width="56" height="56" viewBox="0 0 56 56" fill="none" xmlns="http://www.w3.org/2000/svg">
<path d="M20.0288 9.54348C23.5754 3.18117 25.3487 0 28 0C30.6513 0 32.4245 3.18114 35.971 9.54345L36.8886 11.1895C37.8966 12.9974 38.4003 13.9014 39.1862 14.4979C39.9719 15.0943 40.9502 15.3157 42.9074 15.7586L44.6894 16.1617C51.5762 17.72 55.0199 18.4991 55.8392 21.1337C56.6585 23.7681 54.311 26.5135 49.6157 32.0038L48.401 33.4242C47.0668 34.9844 46.3996 35.7644 46.0994 36.7296C45.7996 37.6948 45.9003 38.7355 46.1019 40.8173L46.2856 42.7124C46.9954 50.0378 47.3505 53.7004 45.2057 55.3286C43.0606 56.9568 39.8364 55.4723 33.388 52.5034L31.7198 51.7351C29.8874 50.8915 28.9713 50.4695 28 50.4695C27.0287 50.4695 26.1125 50.8915 24.2802 51.7351L22.6119 52.5034C16.1635 55.4723 12.9393 56.9568 10.7944 55.3286C8.64954 53.7004 9.00446 50.0378 9.71431 42.7124L9.89794 40.8173C10.0997 38.7355 10.2005 37.6948 9.9004 36.7296C9.6003 35.7644 8.9332 34.9844 7.59897 33.4242L6.38427 32.0038C1.6891 26.5135 -0.658498 23.7681 0.160781 21.1337C0.98006 18.4991 4.42361 17.72 11.3107 16.1617L13.0925 15.7586C15.0496 15.3157 16.0281 15.0943 16.8138 14.4979C17.5995 13.9014 18.1035 12.9974 19.1113 11.1895L20.0288 9.54348Z" fill="#8F8F8F"/>
<path d="M34.0453 22.6703C34.0453 25.6973 31.1452 28.1512 28.2518 28.1512C25.3583 28.1512 22.4583 25.6973 22.4583 22.6703C22.4583 19.6433 25.3583 17.1895 28.2518 17.1895C31.1452 17.1895 34.0453 19.6433 34.0453 22.6703Z" fill="white"/>
<path d="M16.6348 36.536C16.6348 33.0045 19.4903 30.1416 23.0127 30.1416H33.4908C37.0133 30.1416 39.8688 33.0045 39.8688 36.536C39.8688 40.0675 38.1222 42.9303 34.5997 42.9303H21.9038C18.3814 42.9303 16.6348 40.0675 16.6348 36.536Z" fill="white"/>
</svg>
