<svg width="218" height="218" viewBox="0 0 218 218" fill="none" xmlns="http://www.w3.org/2000/svg">
<ellipse cx="108.76" cy="109" rx="108.76" ry="109" fill="#D9D9D9"/>
<path d="M113 70C113 68.8954 113.895 68 115 68H126C127.105 68 128 68.8954 128 70V81C128 82.1046 127.105 83 126 83H115C113.895 83 113 82.1046 113 81V70Z" fill="white"/>
<path d="M94 68C92.8954 68 92 68.8954 92 70V81C92 82.1046 92.8954 83 94 83H105C106.105 83 107 82.1046 107 81V70C107 68.8954 106.105 68 105 68H94Z" fill="white"/>
<path d="M113 90C113 88.8954 113.895 88 115 88H126C127.105 88 128 88.8954 128 90V101C128 102.105 127.105 103 126 103H115C113.895 103 113 102.105 113 101V90Z" fill="white"/>
<path d="M94 88C92.8954 88 92 88.8954 92 90V101C92 102.105 92.8954 103 94 103H105C106.105 103 107 102.105 107 101V90C107 88.8954 106.105 88 105 88H94Z" fill="white"/>
<path d="M113 110C113 108.895 113.895 108 115 108H126C127.105 108 128 108.895 128 110V121C128 122.105 127.105 123 126 123H115C113.895 123 113 122.105 113 121V110Z" fill="white"/>
<path d="M94 108C92.8954 108 92 108.895 92 110V121C92 122.105 92.8954 123 94 123H105C106.105 123 107 122.105 107 121V110C107 108.895 106.105 108 105 108H94Z" fill="white"/>
<path d="M53 100C51.8954 100 51 100.895 51 102V110C51 111.105 51.8954 112 53 112H68C69.1046 112 70 111.105 70 110V102C70 100.895 69.1046 100 68 100H53Z" fill="white"/>
<path d="M150 100C148.895 100 148 100.895 148 102V110C148 111.105 148.895 112 150 112H165C166.105 112 167 111.105 167 110V102C167 100.895 166.105 100 165 100H150Z" fill="white"/>
<path fill-rule="evenodd" clip-rule="evenodd" d="M77 54V89H41C39.8954 89 39 89.8954 39 91V157C39 158.105 39.8954 159 41 159H77V164C77 165.105 77.8954 166 79 166H139C140.105 166 141 165.105 141 164V159H177C178.105 159 179 158.105 179 157V91C179 89.8954 178.105 89 177 89H141V54C141 52.8954 140.105 52 139 52H79C77.8954 52 77 52.8954 77 54ZM82 57V161H136V57H82ZM44 94H77V154H44V94ZM174 154H141V94H174V154Z" fill="white"/>
</svg>
