<svg width="218" height="218" viewBox="0 0 218 218" fill="none" xmlns="http://www.w3.org/2000/svg">
<path d="M217.52 109C217.52 169.199 168.826 218 108.76 218C48.6935 218 0 169.199 0 109C0 48.801 48.6935 0 108.76 0C168.826 0 217.52 48.801 217.52 109Z" fill="#D9D9D9"/>
<path fill-rule="evenodd" clip-rule="evenodd" d="M129.47 102.946C137.968 96.573 143.468 86.404 143.468 74.9473C143.468 55.6464 127.858 40 108.601 40C89.3449 40 73.7346 55.6464 73.7346 74.9473C73.7346 86.5697 79.3951 96.867 88.1035 103.221C65.6563 109.56 47.3173 125.725 38 146.79C40.3311 150.392 42.9291 153.805 45.7661 157C54.6859 130.414 79.7542 111.265 109.285 111.265C138.398 111.265 163.174 129.877 172.416 155.877C175.195 152.634 177.732 149.177 180 145.533C170.375 124.775 151.919 108.963 129.47 102.946ZM108.601 98.9307C121.816 98.9307 132.529 88.1929 132.529 74.9473C132.529 61.7016 121.816 50.9638 108.601 50.9638C95.3861 50.9638 84.6731 61.7016 84.6731 74.9473C84.6731 88.1929 95.3861 98.9307 108.601 98.9307Z" fill="white"/>
</svg>
