<svg width="42" height="42" viewBox="0 0 42 42" fill="none" xmlns="http://www.w3.org/2000/svg">
<rect width="42" height="42" rx="8" fill="#4410A5"/>
<g clip-path="url(#clip0_1684_15096)">
<path d="M32.625 21C32.625 14.5781 27.4219 9.375 21 9.375C14.5781 9.375 9.375 14.5781 9.375 21C9.375 26.8022 13.6261 31.6116 19.1836 32.4844V24.3605H16.2305V21H19.1836V18.4388C19.1836 15.5255 20.918 13.9162 23.5744 13.9162C24.8466 13.9162 26.1769 14.1431 26.1769 14.1431V17.0025H24.7106C23.2669 17.0025 22.8164 17.8988 22.8164 18.818V21H26.0405L25.5248 24.3605H22.8164V32.4844C28.3739 31.6116 32.625 26.8022 32.625 21Z" fill="white"/>
</g>
<defs>
<clipPath id="clip0_1684_15096">
<rect width="24" height="24" fill="white" transform="translate(9 9)"/>
</clipPath>
</defs>
</svg>
