<svg width="42" height="42" viewBox="0 0 42 42" fill="none" xmlns="http://www.w3.org/2000/svg">
<rect width="42" height="42" rx="8" fill="#4410A5"/>
<g clip-path="url(#clip0_1684_15097)">
<path d="M21.0027 14.8454C17.5974 14.8454 14.8508 17.5921 14.8508 20.9973C14.8508 24.4026 17.5974 27.1492 21.0027 27.1492C24.4079 27.1492 27.1546 24.4026 27.1546 20.9973C27.1546 17.5921 24.4079 14.8454 21.0027 14.8454ZM21.0027 24.9969C18.8021 24.9969 17.0031 23.2032 17.0031 20.9973C17.0031 18.7914 18.7968 16.9978 21.0027 16.9978C23.2086 16.9978 25.0022 18.7914 25.0022 20.9973C25.0022 23.2032 23.2032 24.9969 21.0027 24.9969ZM28.8412 14.5938C28.8412 15.3915 28.1987 16.0287 27.4062 16.0287C26.6085 16.0287 25.9713 15.3862 25.9713 14.5938C25.9713 13.8013 26.6138 13.1588 27.4062 13.1588C28.1987 13.1588 28.8412 13.8013 28.8412 14.5938ZM32.9157 16.0501C32.8247 14.1279 32.3856 12.4253 30.9775 11.0225C29.5747 9.61974 27.8721 9.1807 25.9499 9.08433C23.9689 8.97189 18.0311 8.97189 16.0501 9.08433C14.1333 9.17535 12.4307 9.61439 11.0225 11.0172C9.61439 12.42 9.1807 14.1226 9.08433 16.0447C8.97189 18.0258 8.97189 23.9635 9.08433 25.9446C9.17535 27.8667 9.61439 29.5693 11.0225 30.9721C12.4307 32.3749 14.1279 32.8139 16.0501 32.9103C18.0311 33.0228 23.9689 33.0228 25.9499 32.9103C27.8721 32.8193 29.5747 32.3803 30.9775 30.9721C32.3803 29.5693 32.8193 27.8667 32.9157 25.9446C33.0281 23.9635 33.0281 18.0311 32.9157 16.0501ZM30.3564 28.0702C29.9388 29.1196 29.1303 29.9281 28.0755 30.351C26.496 30.9775 22.7481 30.8329 21.0027 30.8329C19.2572 30.8329 15.504 30.9721 13.9298 30.351C12.8804 29.9334 12.0719 29.1249 11.649 28.0702C11.0225 26.4907 11.1671 22.7428 11.1671 20.9973C11.1671 19.2519 11.0279 15.4986 11.649 13.9245C12.0666 12.8751 12.8751 12.0666 13.9298 11.6436C15.5093 11.0172 19.2572 11.1617 21.0027 11.1617C22.7481 11.1617 26.5014 11.0225 28.0755 11.6436C29.1249 12.0612 29.9334 12.8697 30.3564 13.9245C30.9828 15.504 30.8383 19.2519 30.8383 20.9973C30.8383 22.7428 30.9828 26.496 30.3564 28.0702Z" fill="white"/>
</g>
<defs>
<clipPath id="clip0_1684_15097">
<rect width="24" height="24" fill="white" transform="translate(9 9)"/>
</clipPath>
</defs>
</svg>
