<svg width="42" height="42" viewBox="0 0 42 42" fill="none" xmlns="http://www.w3.org/2000/svg">
<rect width="42" height="42" rx="8" fill="#4410A5"/>
<g clip-path="url(#clip0_1684_15095)">
<path d="M31.2857 9H10.7089C9.76607 9 9 9.77679 9 10.7304V31.2696C9 32.2232 9.76607 33 10.7089 33H31.2857C32.2286 33 33 32.2232 33 31.2696V10.7304C33 9.77679 32.2286 9 31.2857 9ZM16.2536 29.5714H12.6964V18.1179H16.2589V29.5714H16.2536ZM14.475 16.5536C13.3339 16.5536 12.4125 15.6268 12.4125 14.4911C12.4125 13.3554 13.3339 12.4286 14.475 12.4286C15.6107 12.4286 16.5375 13.3554 16.5375 14.4911C16.5375 15.6321 15.6161 16.5536 14.475 16.5536ZM29.5875 29.5714H26.0304V24C26.0304 22.6714 26.0036 20.9625 24.1821 20.9625C22.3286 20.9625 22.0446 22.4089 22.0446 23.9036V29.5714H18.4875V18.1179H21.9V19.6821H21.9482C22.425 18.7821 23.5875 17.8339 25.3179 17.8339C28.9179 17.8339 29.5875 20.2071 29.5875 23.2929V29.5714Z" fill="white"/>
</g>
<defs>
<clipPath id="clip0_1684_15095">
<rect width="24" height="24" fill="white" transform="translate(9 9)"/>
</clipPath>
</defs>
</svg>
