<?xml version="1.0" encoding="utf-8"?>
<!-- Generator: Adobe Illustrator 27.5.0, SVG Export Plug-In . SVG Version: 6.00 Build 0)  -->
<svg version="1.1" id="Layer_2_00000001647532812498655810000010102065531651039383_"
	 xmlns="http://www.w3.org/2000/svg" xmlns:xlink="http://www.w3.org/1999/xlink" x="0px" y="0px" viewBox="0 0 319.8 72"
	 style="enable-background:new 0 0 319.8 72;" xml:space="preserve">
<style type="text/css">
	.st0{fill:#212121;}
	.st1{fill:#4410A5;}
	.st2{fill:#FFFFFF;}
</style>
<g>
	<path class="st0" d="M90,40.2V18.1h8.7v22.1c0,4.1,2,5.5,4.6,5.5s4.6-1.4,4.6-5.5V18.1h8.7v22.1c0,4.1,2,5.5,4.6,5.5
		s4.6-1.4,4.6-5.5V18.1h8.6v22.1c0,9.3-5.4,13.5-12.5,13.5c-4.2,0-7.6-1.7-9.7-4.8c-2.1,3.2-5.4,4.8-9.7,4.8
		C95.4,53.7,90,49.6,90,40.2L90,40.2z"/>
	<path class="st0" d="M136,39.8c0-8,5.9-13.9,14.2-13.9s14,5.9,14,13.9v2.2h-19.9c0.6,3.1,3,4.5,5.9,4.5c2.3,0,4-0.5,5-1.9h8.3
		c-1.7,5.5-6.7,9.1-13.3,9.1C141.8,53.7,136,47.9,136,39.8z M156,37c-0.9-2.7-3-3.9-5.8-3.9s-4.9,1.2-5.7,3.9H156L156,37z"/>
	<path class="st0" d="M166.7,18.1h16.6c6.8,0,10.2,3.8,10.2,9.2c0,3.4-1.6,6.1-4.2,7.5v0.1c3.7,1.3,5.8,4.4,5.8,8.5
		c0,5.5-3.5,9.6-10.5,9.6h-18V18.1z M181.8,31.8c2.3,0,3.1-1.3,3.1-2.8s-0.6-2.9-3.1-2.9h-6.5v5.7H181.8z M182.9,45
		c2.5,0,3.4-1.4,3.4-3.1s-1.1-3.2-3.4-3.2h-7.6V45H182.9z"/>
	<path class="st0" d="M196.4,38c0-8.2,4.8-12.1,11.9-12.1s11.8,3.8,11.9,12.1v0.2h-8V38c0-3.5-1.6-4.6-3.8-4.6s-3.8,1.1-3.8,4.6v15
		h-8L196.4,38L196.4,38z"/>
	<path class="st0" d="M220.5,19.1c0-2.9,2.2-5.1,5.1-5.1s5.1,2.2,5.1,5.1s-2.2,5.1-5.1,5.1S220.5,22.1,220.5,19.1z M221.6,26.7h8V53
		h-8C221.6,53,221.6,26.7,221.6,26.7z"/>
	<path class="st0" d="M231.9,39.5c0-9.2,6.8-13.6,12.8-13.6c3.1,0,5.8,1.2,7.5,3.6V15.1h8v24.5c0,8.9-6,14.2-14,14.2
		S231.9,48,231.9,39.5L231.9,39.5z M252.2,39.8c0-3.8-2.5-6.4-6.1-6.4s-6.1,2.6-6.1,6.4s2.5,6.4,6.1,6.4S252.2,43.6,252.2,39.8z"/>
	<path class="st0" d="M262.5,55.6h8.1c0.8,1.7,2.7,2.5,5.4,2.5c3.9,0,6-1.7,6-6.8v-1.5c-1.7,2.3-4.3,3.6-7.6,3.6
		c-5.6,0-12.6-3.7-12.6-13.5c0-8,5.9-13.9,14.2-13.9S290,31.5,290,40.1V51c0,10.1-6.4,14-14,14C269.3,65,264.1,62,262.5,55.6
		L262.5,55.6z M282,39.8c0-3.8-2.5-6.4-6.1-6.4s-6.1,2.6-6.1,6.4s2.5,6,6.1,6S282,43.6,282,39.8z"/>
	<path class="st0" d="M291.5,39.8c0-8,5.9-13.9,14.2-13.9s14,5.9,14,13.9v2.2h-19.9c0.6,3.1,3,4.5,5.9,4.5c2.3,0,4-0.5,5-1.9h8.3
		c-1.7,5.5-6.7,9.1-13.3,9.1C297.4,53.7,291.5,47.9,291.5,39.8L291.5,39.8z M311.5,37c-0.9-2.7-3-3.9-5.8-3.9s-4.9,1.2-5.7,3.9
		H311.5z"/>
</g>
<g>
	<path class="st1" d="M11.4,0h49.1C66.9,0,72,5.1,72,11.4v49.1C72,66.9,66.9,72,60.6,72H11.4C5.1,72,0,66.9,0,60.6V11.4
		C0,5.1,5.1,0,11.4,0z"/>
	<g>
		<path class="st2" d="M19.6,16.7c1.8,0,3.2-1.4,3.2-3.2s-1.4-3.2-3.2-3.2s-3.2,1.4-3.2,3.2S17.9,16.7,19.6,16.7z"/>
		<path class="st2" d="M52.3,16.7c1.8,0,3.2-1.4,3.2-3.2s-1.4-3.2-3.2-3.2s-3.2,1.4-3.2,3.2S50.5,16.7,52.3,16.7z"/>
		<path class="st2" d="M55.5,46.2V19.6H49v7.3c-2.9,4-7.8,6.6-13.2,6.6c-5.3,0-10-2.6-13-6.6v-7.3h-6.5v26.5H9.8v6.5h6.5v6.2h6.5
			v-6.2h6.6v-6.5h-6.6V35.6c3.7,2.6,8.2,4.2,13.1,4.2c4.9,0,9.4-1.5,13.1-4.2v10.5H32.7v6.5H49v6.1h6.5v-6.1h6.6v-6.5H55.5z"/>
	</g>
</g>
</svg>
